<svg version="1.2" xmlns="http://www.w3.org/2000/svg" viewBox="0 0 1250 250" width="1250" height="250"><defs><clipPath clipPathUnits="userSpaceOnUse" id="cp1"><path d="m79.61 39.12h70.93c27.72 0 50.19 22.47 50.19 50.19v70.93c0 27.71-22.47 50.18-50.19 50.18h-70.93c-27.71 0-50.18-22.47-50.18-50.18v-70.93c0-27.72 22.47-50.19 50.18-50.19z"/></clipPath></defs><style>.a{fill:#f2eeda}.b{fill:#f25100}.c{fill:#fff}.d{fill:#f2b230}.e{fill:#fff}.f{fill:#f37b3e}</style><g clip-path="url(#cp1)"><path fill-rule="evenodd" class="a" d="m79.6 39.1h71c27.7 0 50.1 22.5 50.1 50.2v70.9c0 27.7-22.4 50.2-50.1 50.2h-71c-27.7 0-50.2-22.5-50.2-50.2v-70.9c0-27.7 22.5-50.2 50.2-50.2z"/><path class="b" d="m185.7 154.9l-9-12.6q0-0.7 0-1.3l5.8-4.4c0.6-0.4 0.9-1.2 0.9-1.9-0.1-0.7-0.5-1.4-1.1-1.7l-6.3-3.3q-0.1-0.9-0.3-1.8l4.9-5.5c0.5-0.5 0.7-1.3 0.5-2-0.2-0.7-0.7-1.3-1.4-1.5l-6.8-1.9q-0.3-0.9-0.6-1.7l3.8-6.3c0.4-0.7 0.4-1.5 0.1-2.1-0.3-0.7-0.9-1.1-1.7-1.2l-7-0.5q-0.5-0.8-0.9-1.5l2.5-6.9c0.3-0.7 0.2-1.5-0.3-2.1-0.4-0.6-1.1-0.9-1.9-0.8l-7 0.9q-0.6-0.6-1.2-1.3l1.2-7.2c0.1-0.8-0.1-1.5-0.7-2-0.5-0.5-1.3-0.6-2-0.4l-6.7 2.3q-0.7-0.5-1.5-1l-0.2-7.3c0-0.8-0.4-1.5-1-1.8-0.6-0.4-1.4-0.4-2 0l-6.3 3.6q-0.8-0.4-1.6-0.7l-1.5-7.1c-0.2-0.7-0.7-1.3-1.4-1.5-0.7-0.3-1.4-0.1-2 0.4l-5.5 4.8q-0.8-0.2-1.7-0.4l-2.8-6.6c-0.4-0.7-1-1.1-1.7-1.2-0.7-0.1-1.4 0.2-1.9 0.8l-4.4 5.8q-0.9-0.1-1.8-0.1l-4.1-5.8c-0.4-0.6-1.1-0.9-1.8-0.9-0.7 0.1-1.4 0.5-1.7 1.2l-3.4 6.5-1.7 0.4-5.2-4.9c-0.5-0.5-1.2-0.7-1.9-0.5-0.7 0.2-1.3 0.8-1.5 1.5l-2 7.1q-0.9 0.3-1.7 0.6l-6-3.7c-0.6-0.4-1.4-0.4-2-0.1-0.7 0.4-1.1 1-1.2 1.8l-0.7 7.3q-0.7 0.5-1.5 1l-6.6-2.5c-0.6-0.2-1.4-0.1-2 0.4-0.6 0.5-0.9 1.2-0.8 1.9l0.7 7.3q-0.7 0.6-1.3 1.3l-7-1.1c-0.7-0.1-1.4 0.2-1.9 0.8-0.5 0.5-0.6 1.3-0.4 2l2 7q0 0.1-0.2 0.2l-14.9 8.1c0 0-2.1 0.8-0.6 4.7 1.2 3.5 8.8 18.1 12.8 25.7 1.5 3.7 2.6 6.1 2.9 6 0.4-0.2 0.6-5.9-2.3-13.7-1.9-6.8-4-17-2.5-17.6 0 0 1.8-1.2 4.9-1.6 0 0.2-0.1-0.1 0 0 0 0 46.9 43.8 106.6 35.6 6.2 0.9 8.7 5.2 8.7 5.2 1 1.1-5.1 8.8-9.6 13.8-5.7 5.4-7.9 10.4-7.7 10.7 0.2 0.1 2.1-1.4 5-3.9 6.6-4.9 19.2-14.1 21.7-16.5 2.9-2.7 1.4-4.3 1.4-4.3z"/><path  d="m129.7 121.8c0 0 7.6-4.3 11.1 3.6 0 0 1.7 9.5-4 12.2 0 0-8.9 3.3-11-3.7 0 0-3.3-6 3.9-12.1z"/><path fill-rule="evenodd" class="c" d="m130.9 129.4c-1.7-0.6-2.5-3-1.7-5.3 0.8-2.4 2.8-3.8 4.5-3.2 1.7 0.5 2.5 2.9 1.7 5.2-0.7 2.4-2.8 3.9-4.5 3.3z"/><path  d="m105.6 112c0 0 10.9-1.1 10.4 9.2 0 0-0.9 11.8-11.6 9 0 0-12.6-7 1.2-18.2z"/><path fill-rule="evenodd" class="c" d="m104.4 121c-1.8-0.6-2.6-3.1-1.8-5.5 0.8-2.4 2.9-3.9 4.7-3.3 1.7 0.6 2.5 3 1.7 5.4-0.8 2.5-2.8 4-4.6 3.4z"/><path class="d" d="m-67.3 137.1c24.9 2.9 42.2-41.6 96.4-37.7 54.3 4 64.6 41.3 115.1 46.7 50.5 5.3 59.5-27.2 120.1-24.9 60.7 2.4 104.3 50.4 104.3 50.4l-132.1 90.9-184.9 9.2-98.4-49.1-45.4-85.3"/></g><path class="e" d="m852.4 100.3v-16.6h2.8v16.6zm0-19.6v-3.5h2.7v3.5zm19 3.5v2.5q-1.2-0.5-2.4-0.8-1.2-0.3-2.6-0.3-2 0-3 0.6-1 0.6-1 1.8 0 1 0.7 1.5 0.7 0.6 2.9 1.1l0.9 0.2q2.9 0.6 4.2 1.7 1.2 1.2 1.2 3.2 0 2.3-1.8 3.6-1.9 1.4-5.1 1.4-1.3 0-2.8-0.3-1.4-0.2-3-0.7v-2.9q1.5 0.8 3 1.2 1.5 0.4 2.9 0.4 1.9 0 3-0.6 1-0.7 1-1.9 0-1.1-0.8-1.7-0.7-0.6-3.2-1.1l-1-0.3q-2.5-0.5-3.6-1.6-1.2-1.1-1.2-3 0-2.4 1.7-3.6 1.6-1.3 4.7-1.3 1.5 0 2.8 0.2 1.4 0.2 2.5 0.7zm25.1 7.7h-2.7q-3.3 0-4.6 0.8-1.2 0.7-1.2 2.6 0 1.4 0.9 2.3 1 0.8 2.6 0.8 2.3 0 3.6-1.6 1.4-1.6 1.4-4.3zm2.7-1.1v9.5h-2.7v-2.5q-0.9 1.5-2.3 2.2-1.4 0.7-3.4 0.7-2.6 0-4.1-1.4-1.5-1.5-1.5-3.9 0-2.8 1.9-4.2 1.9-1.4 5.6-1.4h3.8v-0.3q0-1.8-1.2-2.9-1.2-1-3.5-1-1.4 0-2.8 0.3-1.3 0.4-2.5 1.1v-2.6q1.4-0.5 2.9-0.8 1.4-0.3 2.7-0.3 3.6 0 5.4 1.9 1.7 1.8 1.7 5.6zm26.2-4.6v-9h2.7v23.1h-2.7v-2.5q-0.8 1.5-2.2 2.2-1.3 0.7-3.1 0.7-3 0-4.9-2.4-1.9-2.4-1.9-6.3 0-3.9 1.9-6.3 1.9-2.4 4.9-2.4 1.8 0 3.1 0.7 1.4 0.7 2.2 2.2zm-9.3 5.8q0 3 1.3 4.7 1.2 1.7 3.4 1.7 2.1 0 3.4-1.7 1.2-1.7 1.2-4.7 0-3-1.2-4.7-1.3-1.7-3.4-1.7-2.2 0-3.4 1.7-1.3 1.7-1.3 4.7zm27.3-8.6v2.8q-0.5-0.2-1-0.4-0.6-0.1-1.2-0.1-2.3 0-3.6 1.5-1.2 1.5-1.2 4.3v8.8h-2.7v-16.6h2.7v2.6q0.9-1.5 2.2-2.3 1.4-0.7 3.4-0.7 0.3 0 0.6 0 0.3 0.1 0.8 0.1zm8.6 2.2q-2.2 0-3.5 1.7-1.2 1.7-1.2 4.7 0 3 1.2 4.7 1.3 1.7 3.5 1.7 2.2 0 3.4-1.7 1.3-1.7 1.3-4.7 0-3-1.3-4.7-1.2-1.7-3.4-1.7zm0-2.3q3.5 0 5.6 2.3 2 2.3 2 6.4 0 4.1-2 6.4-2.1 2.3-5.6 2.3-3.6 0-5.6-2.3-2-2.3-2-6.4 0-4.1 2-6.4 2-2.3 5.6-2.3zm14.8 14.5v8.8h-2.8v-22.9h2.8v2.5q0.8-1.5 2.1-2.2 1.3-0.7 3.2-0.7 3 0 4.9 2.4 1.9 2.4 1.9 6.3 0 3.9-1.9 6.3-1.9 2.4-4.9 2.4-1.9 0-3.2-0.7-1.3-0.7-2.1-2.2zm9.2-5.8q0-3-1.2-4.7-1.2-1.7-3.4-1.7-2.2 0-3.4 1.7-1.2 1.7-1.2 4.7 0 3 1.2 4.7 1.2 1.7 3.4 1.7 2.2 0 3.4-1.7 1.2-1.7 1.2-4.7zm6 1.2v-2.5h8v2.5zm12.3 7.1v-16.6h2.7v16.6zm0-19.6v-3.5h2.8v3.5zm22.2 9.6v10h-2.7v-10q0-2.3-1-3.5-0.9-1.1-2.7-1.1-2.2 0-3.5 1.4-1.3 1.4-1.3 3.8v9.4h-2.7v-16.6h2.7v2.6q1-1.5 2.3-2.3 1.4-0.7 3.1-0.7 2.8 0 4.3 1.8 1.5 1.7 1.5 5.2zm24.7-6.9v2.8q-0.5-0.2-1-0.4-0.6-0.1-1.2-0.1-2.3 0-3.6 1.5-1.2 1.5-1.2 4.3v8.8h-2.7v-16.6h2.7v2.6q0.9-1.5 2.2-2.3 1.4-0.7 3.4-0.7 0.3 0 0.6 0 0.3 0.1 0.8 0.1zm16.4 7.9v1.3h-12.6q0.2 2.8 1.7 4.3 1.5 1.5 4.2 1.5 1.6 0 3.1-0.4 1.5-0.4 2.9-1.1v2.5q-1.5 0.7-3 1-1.5 0.3-3.1 0.3-4 0-6.3-2.3-2.3-2.3-2.3-6.3 0-4 2.2-6.4 2.2-2.4 5.9-2.4 3.4 0 5.3 2.1 2 2.2 2 5.9zm-12.5-0.8h9.7q0-2.2-1.2-3.6-1.2-1.3-3.3-1.3-2.2 0-3.6 1.3-1.4 1.3-1.6 3.6zm19.6 7.3v8.8h-2.8v-22.9h2.8v2.5q0.8-1.5 2.1-2.2 1.3-0.7 3.2-0.7 3 0 4.9 2.4 1.9 2.4 1.9 6.3 0 3.9-1.9 6.3-1.9 2.4-4.9 2.4-1.9 0-3.2-0.7-1.3-0.7-2.1-2.2zm9.2-5.8q0-3-1.2-4.7-1.2-1.7-3.4-1.7-2.2 0-3.4 1.7-1.2 1.7-1.2 4.7 0 3 1.2 4.7 1.2 1.7 3.4 1.7 2.2 0 3.4-1.7 1.2-1.7 1.2-4.7zm7.4 8.3v-23.1h2.7v23.1zm18.7-8.4h-2.7q-3.3 0-4.6 0.8-1.3 0.7-1.3 2.6 0 1.4 1 2.3 0.9 0.8 2.6 0.8 2.2 0 3.6-1.6 1.4-1.6 1.4-4.3zm2.7-1.1v9.5h-2.7v-2.5q-0.9 1.5-2.3 2.2-1.4 0.7-3.4 0.7-2.6 0-4.1-1.4-1.5-1.4-1.5-3.8 0-2.8 1.9-4.3 1.8-1.4 5.6-1.4h3.8v-0.3q0-1.8-1.3-2.9-1.2-1-3.4-1-1.4 0-2.8 0.3-1.3 0.4-2.6 1.1v-2.6q1.5-0.5 2.9-0.8 1.4-0.3 2.8-0.3 3.6 0 5.3 1.9 1.8 1.8 1.8 5.6zm17.6-6.5v2.6q-1.2-0.7-2.4-1-1.1-0.3-2.3-0.3-2.7 0-4.1 1.7-1.5 1.7-1.5 4.7 0 3 1.5 4.7 1.4 1.7 4.1 1.7 1.2 0 2.3-0.3 1.2-0.3 2.4-1v2.5q-1.2 0.6-2.4 0.8-1.2 0.3-2.6 0.3-3.7 0-6-2.3-2.2-2.4-2.2-6.4 0-4.1 2.3-6.4 2.2-2.3 6.1-2.3 1.2 0 2.4 0.3 1.2 0.2 2.4 0.7zm18.9 7v1.3h-12.5q0.1 2.9 1.6 4.3 1.6 1.5 4.3 1.5 1.6 0 3-0.4 1.5-0.4 3-1.1v2.5q-1.5 0.7-3.1 1-1.5 0.3-3.1 0.3-3.9 0-6.3-2.3-2.3-2.3-2.3-6.3 0-4 2.2-6.4 2.2-2.4 5.9-2.4 3.4 0 5.3 2.2 2 2.1 2 5.8zm-12.5-0.8h9.8q-0.1-2.2-1.3-3.6-1.2-1.3-3.2-1.3-2.3 0-3.7 1.3-1.3 1.3-1.6 3.6zm29.9-3.6q1-1.9 2.4-2.7 1.4-0.9 3.4-0.9 2.6 0 4 1.8 1.4 1.8 1.4 5.2v10h-2.8v-9.9q0-2.4-0.8-3.6-0.9-1.1-2.6-1.1-2.1 0-3.3 1.4-1.3 1.4-1.3 3.8v9.4h-2.7v-9.9q0-2.4-0.8-3.6-0.9-1.1-2.7-1.1-2 0-3.3 1.4-1.2 1.4-1.2 3.8v9.4h-2.7v-16.6h2.7v2.6q0.9-1.6 2.2-2.3 1.3-0.7 3.1-0.7 1.8 0 3.1 0.9 1.3 0.9 1.9 2.7zm30.8 4.4v1.3h-12.5q0.1 2.9 1.7 4.3 1.5 1.5 4.2 1.5 1.6 0 3-0.4 1.5-0.4 3-1.1v2.5q-1.5 0.7-3 1-1.6 0.3-3.2 0.3-3.9 0-6.3-2.3-2.3-2.3-2.3-6.3 0-4 2.2-6.4 2.2-2.4 6-2.4 3.3 0 5.2 2.2 2 2.1 2 5.8zm-12.4-0.8h9.7q-0.1-2.2-1.3-3.6-1.2-1.3-3.2-1.3-2.3 0-3.7 1.3-1.3 1.3-1.5 3.6zm30.7-0.2v10h-2.8v-9.9q0-2.4-0.9-3.6-0.9-1.1-2.7-1.1-2.2 0-3.5 1.4-1.3 1.4-1.3 3.8v9.4h-2.7v-16.6h2.7v2.6q1-1.5 2.3-2.3 1.3-0.7 3.1-0.7 2.8 0 4.3 1.8 1.5 1.7 1.5 5.2zm5.4-11.3h2.7v4.7h5.6v2.1h-5.6v9q0 2 0.5 2.6 0.6 0.6 2.3 0.6h2.8v2.3h-2.8q-3.1 0-4.3-1.2-1.2-1.2-1.2-4.3v-9h-2v-2.1h2zm-486.7 34.6h2.6v2.3h-2.6q-1.5 0-2 0.6-0.6 0.6-0.6 2.1v1.5h4.5v2.1h-4.5v14.5h-2.7v-14.5h-2.6v-2.1h2.6v-1.2q0-2.7 1.3-4 1.2-1.3 4-1.3zm11.3 8.4q-2.2 0-3.4 1.7-1.3 1.7-1.3 4.7 0 3 1.3 4.7 1.2 1.7 3.4 1.7 2.2 0 3.5-1.7 1.3-1.7 1.3-4.7 0-2.9-1.3-4.7-1.3-1.7-3.5-1.7zm0-2.3q3.6 0 5.6 2.3 2 2.3 2 6.4 0 4.1-2 6.4-2 2.3-5.6 2.3-3.5 0-5.6-2.3-2-2.3-2-6.4 0-4.1 2-6.4 2.1-2.3 5.6-2.3zm21.8 0.2v2.8q-0.5-0.3-1-0.4-0.6-0.2-1.2-0.2-2.3 0-3.6 1.5-1.2 1.5-1.2 4.4v8.7h-2.7v-16.6h2.7v2.6q0.9-1.5 2.2-2.3 1.4-0.7 3.4-0.7 0.3 0 0.6 0 0.3 0.1 0.8 0.2zm12.6 16.8v-22.1h3v9h10.9v-9h3v22.1h-3v-10.5h-10.9v10.5zm29.1-14.7q-2.2 0-3.5 1.7-1.2 1.7-1.2 4.7 0 3 1.2 4.7 1.3 1.7 3.5 1.7 2.2 0 3.5-1.7 1.2-1.7 1.2-4.7 0-2.9-1.2-4.7-1.3-1.7-3.5-1.7zm0-2.3q3.6 0 5.6 2.3 2 2.3 2 6.4 0 4.1-2 6.4-2 2.3-5.6 2.3-3.6 0-5.6-2.3-2-2.3-2-6.4 0-4.1 2-6.4 2-2.3 5.6-2.3zm25.1 3.6q1-1.8 2.4-2.7 1.4-0.9 3.3-0.9 2.6 0 4 1.8 1.5 1.8 1.5 5.2v10h-2.8v-9.9q0-2.4-0.8-3.6-0.9-1.1-2.6-1.1-2.1 0-3.4 1.4-1.2 1.4-1.2 3.8v9.4h-2.7v-9.9q0-2.4-0.9-3.6-0.8-1.1-2.6-1.1-2.1 0-3.3 1.4-1.2 1.4-1.2 3.8v9.4h-2.8v-16.6h2.8v2.6q0.9-1.5 2.2-2.3 1.3-0.7 3.1-0.7 1.8 0 3.1 0.9 1.2 0.9 1.9 2.7zm30.8 4.4v1.3h-12.6q0.2 2.9 1.7 4.3 1.6 1.5 4.3 1.5 1.5 0 3-0.4 1.5-0.4 2.9-1.1v2.5q-1.4 0.7-3 1-1.5 0.3-3.1 0.3-4 0-6.3-2.3-2.3-2.3-2.3-6.2 0-4.1 2.2-6.5 2.2-2.4 5.9-2.4 3.4 0 5.3 2.2 2 2.1 2 5.8zm-12.5-0.8h9.8q-0.1-2.2-1.3-3.6-1.2-1.3-3.2-1.3-2.3 0-3.7 1.3-1.4 1.3-1.6 3.6zm28.9 1.5q0-3-1.3-4.7-1.2-1.7-3.4-1.7-2.1 0-3.4 1.7-1.2 1.7-1.2 4.7 0 3 1.2 4.7 1.3 1.7 3.4 1.7 2.2 0 3.4-1.7 1.3-1.7 1.3-4.7zm-9.3-14.8v9q0.8-1.5 2.1-2.2 1.4-0.7 3.2-0.7 3 0 4.9 2.4 1.9 2.4 1.9 6.3 0 3.9-1.9 6.3-1.9 2.4-4.9 2.4-1.8 0-3.2-0.7-1.3-0.7-2.1-2.2v2.5h-2.8v-23.1zm26.3 6.3v2.8q-0.5-0.3-1-0.4-0.6-0.2-1.2-0.2-2.3 0-3.6 1.5-1.2 1.5-1.2 4.4v8.7h-2.7v-16.6h2.7v2.6q0.9-1.5 2.2-2.3 1.4-0.7 3.4-0.7 0.3 0 0.6 0 0.3 0.1 0.8 0.2zm16.4 7.8v1.3h-12.6q0.2 2.9 1.7 4.3 1.5 1.5 4.3 1.5 1.5 0 3-0.4 1.5-0.4 2.9-1.1v2.5q-1.4 0.7-3 1-1.5 0.3-3.1 0.3-4 0-6.3-2.3-2.3-2.3-2.3-6.2 0-4.1 2.2-6.5 2.2-2.4 5.9-2.4 3.4 0 5.3 2.2 2 2.1 2 5.8zm-12.5-0.8h9.7q0-2.2-1.2-3.6-1.2-1.3-3.3-1.3-2.2 0-3.6 1.3-1.4 1.3-1.6 3.6zm19.7 9.8l-4.4-16.6h2.8l3.4 12.9 3.4-12.9h3.2l3.4 12.9 3.4-12.9h2.7l-4.3 16.6h-3.2l-3.6-13.6-3.6 13.6zm22.8-1.2v-2.6h3.1v2.6l-2.5 4.7h-1.9zm28.9-7.1h-2.7q-3.3 0-4.6 0.7-1.3 0.8-1.3 2.6 0 1.5 1 2.3 0.9 0.9 2.6 0.9 2.2 0 3.6-1.6 1.4-1.6 1.4-4.3zm2.7-1.1v9.4h-2.7v-2.5q-1 1.5-2.3 2.3-1.4 0.7-3.5 0.7-2.5 0-4-1.5-1.5-1.4-1.5-3.8 0-2.8 1.9-4.2 1.8-1.4 5.6-1.4h3.8v-0.3q0-1.9-1.3-2.9-1.2-1-3.4-1-1.5 0-2.8 0.3-1.4 0.3-2.6 1v-2.5q1.5-0.6 2.9-0.9 1.4-0.2 2.7-0.2 3.6 0 5.4 1.8 1.8 1.9 1.8 5.7zm17.6-6.5v2.5q-1.2-0.6-2.4-0.9-1.1-0.3-2.3-0.3-2.7 0-4.1 1.6-1.5 1.7-1.5 4.8 0 3 1.5 4.7 1.4 1.7 4.1 1.7 1.2 0 2.3-0.4 1.2-0.3 2.4-0.9v2.5q-1.2 0.5-2.4 0.8-1.2 0.3-2.6 0.3-3.8 0-6-2.4-2.2-2.3-2.2-6.3 0-4.1 2.3-6.4 2.2-2.3 6.1-2.3 1.2 0 2.4 0.2 1.2 0.3 2.4 0.8zm18.5 5.9v10h-2.7v-9.9q0-2.3-1-3.5-0.9-1.2-2.7-1.2-2.2 0-3.5 1.4-1.3 1.4-1.3 3.9v9.3h-2.7v-23h2.7v9q1-1.5 2.3-2.2 1.4-0.7 3.1-0.7 2.9 0 4.3 1.7 1.5 1.8 1.5 5.2zm5.4 10v-16.5h2.7v16.5zm0-19.6v-3.4h2.8v3.4zm22.6 10.7v1.3h-12.5q0.1 2.8 1.6 4.3 1.6 1.5 4.3 1.5 1.6 0 3-0.4 1.5-0.4 3-1.2v2.6q-1.5 0.6-3.1 0.9-1.5 0.4-3.1 0.4-3.9 0-6.3-2.3-2.3-2.4-2.3-6.3 0-4.1 2.2-6.5 2.2-2.3 5.9-2.3 3.4 0 5.3 2.1 2 2.2 2 5.9zm-12.5-0.8h9.8q-0.1-2.3-1.3-3.6-1.2-1.3-3.2-1.3-2.3 0-3.7 1.2-1.3 1.3-1.6 3.7zm21.2 9.7l-6.2-16.5h2.9l5.2 13.9 5.2-13.9h2.9l-6.3 16.5zm13.7 0v-16.5h2.7v16.5zm0-19.6v-3.4h2.8v3.4zm22.2 9.6v10h-2.7v-9.9q0-2.3-1-3.5-0.9-1.2-2.7-1.2-2.2 0-3.5 1.4-1.3 1.4-1.3 3.9v9.3h-2.7v-16.5h2.7v2.5q1-1.5 2.3-2.2 1.4-0.7 3.1-0.7 2.9 0 4.3 1.7 1.5 1.8 1.5 5.2zm16.3 1.6q0-3-1.2-4.6-1.2-1.7-3.4-1.7-2.2 0-3.4 1.7-1.2 1.6-1.2 4.6 0 2.9 1.2 4.5 1.2 1.7 3.4 1.7 2.2 0 3.4-1.7 1.2-1.6 1.2-4.5zm2.8-8.1v14.5q0 4.2-1.9 6.3-1.9 2-5.8 2-1.4 0-2.7-0.2-1.3-0.2-2.5-0.6v-2.7q1.2 0.7 2.4 1 1.2 0.3 2.4 0.3 2.7 0 4-1.4 1.3-1.4 1.3-4.2v-1.4q-0.8 1.5-2.1 2.2-1.3 0.7-3.2 0.7-3 0-4.9-2.3-1.9-2.3-1.9-6.1 0-3.9 1.9-6.2 1.9-2.3 4.9-2.3 1.9 0 3.2 0.7 1.3 0.7 2.1 2.2v-2.5zm-411.1 31.6h2.7v4.8h5.6v2.1h-5.6v9q0 2 0.6 2.6 0.5 0.6 2.2 0.6h2.8v2.2h-2.8q-3.1 0-4.3-1.1-1.2-1.2-1.2-4.3v-9h-2v-2.1h2zm25.7 11.2v10.1h-2.7v-10q0-2.3-0.9-3.5-0.9-1.2-2.8-1.2-2.2 0-3.5 1.4-1.2 1.4-1.2 3.9v9.4h-2.8v-23.1h2.8v9q0.9-1.5 2.3-2.2 1.3-0.7 3-0.7 2.9 0 4.4 1.7 1.4 1.8 1.4 5.2zm19.6 1.1v1.3h-12.5q0.2 2.8 1.7 4.3 1.5 1.5 4.2 1.5 1.6 0 3.1-0.4 1.5-0.4 2.9-1.2v2.6q-1.5 0.6-3 1-1.5 0.3-3.1 0.3-4 0-6.3-2.3-2.3-2.3-2.3-6.3 0-4.1 2.2-6.4 2.2-2.4 5.9-2.4 3.3 0 5.3 2.1 1.9 2.2 1.9 5.9zm-12.4-0.8h9.7q0-2.3-1.2-3.6-1.3-1.3-3.3-1.3-2.2 0-3.6 1.3-1.4 1.2-1.6 3.6zm37.1-6.3v2.5q-1.1-0.6-2.4-0.9-1.2-0.3-2.5-0.3-2.1 0-3.1 0.7-1 0.6-1 1.8 0 1 0.7 1.5 0.8 0.6 2.9 1l1 0.3q2.9 0.6 4.1 1.7 1.2 1.1 1.2 3.2 0 2.3-1.8 3.6-1.8 1.4-5 1.4-1.4 0-2.8-0.3-1.5-0.2-3.1-0.8v-2.8q1.6 0.8 3 1.2 1.5 0.4 2.9 0.4 2 0 3-0.7 1-0.6 1-1.8 0-1.1-0.7-1.7-0.8-0.6-3.3-1.2l-1-0.2q-2.5-0.5-3.6-1.6-1.1-1.1-1.1-3.1 0-2.3 1.6-3.6 1.7-1.2 4.7-1.2 1.5 0 2.9 0.2 1.3 0.2 2.4 0.7zm7.9 13.6v8.8h-2.7v-22.9h2.7v2.5q0.9-1.5 2.2-2.2 1.3-0.7 3.1-0.7 3 0 4.9 2.4 1.9 2.4 1.9 6.3 0 3.9-1.9 6.3-1.9 2.4-4.9 2.4-1.8 0-3.1-0.7-1.3-0.8-2.2-2.2zm9.3-5.8q0-3-1.3-4.7-1.2-1.8-3.4-1.8-2.1 0-3.4 1.8-1.2 1.7-1.2 4.7 0 3 1.2 4.7 1.3 1.7 3.4 1.7 2.2 0 3.4-1.7 1.3-1.7 1.3-4.7zm21.5-0.7v1.3h-12.5q0.2 2.8 1.7 4.3 1.5 1.5 4.2 1.5 1.6 0 3-0.4 1.5-0.4 3-1.2v2.6q-1.5 0.6-3 1-1.6 0.3-3.2 0.3-3.9 0-6.3-2.3-2.3-2.3-2.3-6.3 0-4.1 2.2-6.4 2.2-2.4 6-2.4 3.3 0 5.3 2.1 1.9 2.2 1.9 5.9zm-12.4-0.8h9.7q0-2.3-1.3-3.6-1.2-1.3-3.2-1.3-2.3 0-3.7 1.3-1.3 1.2-1.5 3.6zm31.1 0.8v1.3h-12.6q0.2 2.8 1.7 4.3 1.6 1.5 4.3 1.5 1.5 0 3-0.4 1.5-0.4 2.9-1.2v2.6q-1.4 0.6-3 1-1.5 0.3-3.1 0.3-4 0-6.3-2.3-2.3-2.3-2.3-6.3 0-4.1 2.2-6.4 2.2-2.4 5.9-2.4 3.4 0 5.3 2.1 2 2.2 2 5.9zm-12.5-0.8h9.7q0-2.3-1.2-3.6-1.2-1.3-3.2-1.3-2.3 0-3.7 1.3-1.4 1.2-1.6 3.6zm27.9-4.3v-9h2.7v23.1h-2.7v-2.5q-0.9 1.4-2.2 2.2-1.3 0.7-3.2 0.7-3 0-4.9-2.4-1.8-2.4-1.8-6.3 0-3.9 1.8-6.3 1.9-2.4 4.9-2.4 1.9 0 3.2 0.7 1.3 0.7 2.2 2.2zm-9.3 5.8q0 3 1.2 4.7 1.2 1.7 3.4 1.7 2.2 0 3.4-1.7 1.3-1.7 1.3-4.7 0-3-1.3-4.7-1.2-1.8-3.4-1.8-2.2 0-3.4 1.8-1.2 1.7-1.2 4.7zm30 8.3l-4.3-16.6h2.7l3.4 12.9 3.4-12.9h3.2l3.4 12.9 3.4-12.9h2.7l-4.3 16.6h-3.2l-3.6-13.6-3.6 13.6zm22.1 0v-16.6h2.7v16.6zm0-19.6v-3.5h2.7v3.5zm8.4-1.7h2.7v4.7h5.7v2.1h-5.7v9q0 2 0.6 2.6 0.6 0.6 2.3 0.6h2.8v2.3h-2.8q-3.2 0-4.4-1.2-1.2-1.2-1.2-4.3v-9h-2v-2.1h2zm25.7 11.2v10.1h-2.7v-10q0-2.3-0.9-3.5-0.9-1.2-2.8-1.2-2.2 0-3.4 1.4-1.3 1.5-1.3 3.9v9.4h-2.8v-23.1h2.8v9q1-1.4 2.3-2.2 1.3-0.7 3-0.7 2.9 0 4.4 1.7 1.4 1.8 1.4 5.2zm15.1-11.2h2.7v4.7h5.6v2.1h-5.6v9q0 2 0.6 2.6 0.5 0.6 2.2 0.6h2.8v2.3h-2.8q-3.1 0-4.3-1.2-1.2-1.2-1.2-4.3v-9h-2v-2.1h2zm25.7 11.3v10h-2.7v-10q0-2.3-1-3.5-0.9-1.1-2.7-1.1-2.2 0-3.5 1.4-1.3 1.4-1.3 3.8v9.4h-2.7v-23.1h2.7v9.1q1-1.5 2.3-2.3 1.4-0.7 3.1-0.7 2.9 0 4.3 1.8 1.5 1.7 1.5 5.2zm19.6 1v1.3h-12.5q0.2 2.8 1.7 4.3 1.5 1.5 4.2 1.5 1.6 0 3-0.4 1.5-0.4 3-1.2v2.6q-1.5 0.6-3 1-1.6 0.3-3.2 0.3-3.9 0-6.2-2.3-2.4-2.3-2.4-6.3 0-4 2.2-6.4 2.2-2.4 6-2.4 3.3 0 5.3 2.1 1.9 2.2 1.9 5.9zm-12.4-0.8h9.7q0-2.2-1.3-3.6-1.2-1.3-3.2-1.3-2.3 0-3.7 1.3-1.3 1.3-1.5 3.6zm37.1-6.3v2.5q-1.1-0.5-2.4-0.8-1.2-0.3-2.6-0.3-2 0-3 0.6-1 0.6-1 1.9 0 0.9 0.7 1.4 0.7 0.6 2.9 1.1l1 0.2q2.9 0.6 4.1 1.7 1.2 1.2 1.2 3.2 0 2.3-1.8 3.7-1.9 1.3-5.1 1.3-1.3 0-2.7-0.3-1.5-0.2-3.1-0.7v-2.9q1.5 0.8 3 1.2 1.5 0.4 2.9 0.4 1.9 0 3-0.6 1-0.7 1-1.9 0-1.1-0.8-1.7-0.7-0.6-3.2-1.1l-1-0.3q-2.5-0.5-3.6-1.6-1.2-1.1-1.2-3 0-2.4 1.7-3.6 1.7-1.3 4.7-1.3 1.5 0 2.9 0.2 1.3 0.2 2.4 0.7zm15.5 7.7h-2.7q-3.3 0-4.6 0.8-1.3 0.7-1.3 2.6 0 1.4 1 2.3 0.9 0.8 2.6 0.8 2.2 0 3.6-1.6 1.4-1.6 1.4-4.3zm2.7-1.1v9.5h-2.7v-2.5q-0.9 1.5-2.3 2.2-1.4 0.7-3.4 0.7-2.6 0-4.1-1.4-1.5-1.5-1.5-3.9 0-2.7 1.9-4.2 1.8-1.4 5.6-1.4h3.8v-0.3q0-1.8-1.3-2.9-1.2-1-3.4-1-1.4 0-2.8 0.3-1.3 0.4-2.6 1.1v-2.6q1.5-0.5 2.9-0.8 1.4-0.3 2.8-0.3 3.6 0 5.3 1.9 1.8 1.8 1.8 5.6zm18.5-3.9q1.1-1.9 2.5-2.7 1.4-0.9 3.3-0.9 2.6 0 4 1.8 1.4 1.8 1.4 5.2v10h-2.7v-9.9q0-2.4-0.8-3.6-0.9-1.1-2.6-1.1-2.1 0-3.4 1.4-1.2 1.4-1.2 3.8v9.4h-2.7v-9.9q0-2.4-0.9-3.6-0.8-1.1-2.6-1.1-2.1 0-3.3 1.4-1.2 1.4-1.2 3.8v9.4h-2.8v-16.6h2.8v2.6q0.9-1.6 2.2-2.3 1.3-0.7 3.1-0.7 1.8 0 3.1 0.9 1.2 0.9 1.8 2.7zm30.9 4.4v1.3h-12.6q0.2 2.8 1.7 4.3 1.5 1.5 4.3 1.5 1.5 0 3-0.4 1.5-0.4 2.9-1.1v2.5q-1.4 0.7-3 1-1.5 0.3-3.1 0.3-4 0-6.3-2.3-2.3-2.3-2.3-6.3 0-4 2.2-6.4 2.2-2.4 5.9-2.4 3.4 0 5.3 2.2 2 2.1 2 5.8zm-12.5-0.8h9.7q0-2.2-1.2-3.6-1.2-1.3-3.2-1.3-2.3 0-3.7 1.3-1.4 1.3-1.6 3.6zm29.2 7.3v8.8h-2.7v-22.9h2.7v2.5q0.9-1.5 2.2-2.2 1.3-0.7 3.1-0.7 3 0 4.9 2.4 1.9 2.4 1.9 6.3 0 3.9-1.9 6.3-1.9 2.4-4.9 2.4-1.8 0-3.1-0.7-1.3-0.7-2.2-2.2zm9.3-5.8q0-3-1.3-4.7-1.2-1.7-3.3-1.7-2.2 0-3.5 1.7-1.2 1.7-1.2 4.7 0 3 1.2 4.7 1.3 1.7 3.5 1.7 2.1 0 3.3-1.7 1.3-1.7 1.3-4.7zm17.6-0.1h-2.7q-3.3 0-4.6 0.8-1.3 0.8-1.3 2.6 0 1.4 1 2.3 0.9 0.8 2.6 0.8 2.2 0 3.6-1.6 1.4-1.6 1.4-4.3zm2.7-1.1v9.5h-2.7v-2.5q-0.9 1.5-2.3 2.2-1.4 0.7-3.4 0.7-2.6 0-4.1-1.4-1.5-1.4-1.5-3.8 0-2.8 1.9-4.3 1.8-1.4 5.6-1.4h3.8v-0.3q0-1.8-1.3-2.9-1.2-1-3.4-1-1.4 0-2.8 0.3-1.3 0.4-2.6 1.1v-2.5q1.5-0.6 2.9-0.9 1.4-0.3 2.8-0.3 3.6 0 5.3 1.9 1.8 1.8 1.8 5.6zm17.6-6.5v2.6q-1.2-0.7-2.4-1-1.1-0.3-2.3-0.3-2.7 0-4.1 1.7-1.5 1.7-1.5 4.7 0 3 1.5 4.7 1.4 1.7 4.1 1.7 1.2 0 2.3-0.3 1.2-0.3 2.4-1v2.5q-1.2 0.6-2.4 0.8-1.2 0.3-2.6 0.3-3.7 0-6-2.3-2.2-2.4-2.2-6.4 0-4.1 2.3-6.4 2.2-2.3 6.1-2.3 1.2 0 2.4 0.3 1.2 0.2 2.4 0.7zm4.6 16v-23.1h2.7v13.7l8.2-7.2h3.5l-8.8 7.8 9.1 8.8h-3.5l-8.5-8.1v8.1zm27.4-8.4h-2.7q-3.3 0-4.6 0.8-1.2 0.8-1.2 2.6 0 1.4 0.9 2.3 1 0.8 2.6 0.8 2.3 0 3.6-1.6 1.4-1.6 1.4-4.2zm2.8-1.2v9.5h-2.8v-2.5q-0.9 1.5-2.3 2.2-1.4 0.7-3.4 0.7-2.6 0-4.1-1.4-1.5-1.4-1.5-3.8 0-2.8 1.9-4.3 1.9-1.4 5.6-1.4h3.8v-0.2q0-1.9-1.2-2.9-1.2-1.1-3.5-1.1-1.4 0-2.8 0.4-1.3 0.3-2.5 1v-2.5q1.5-0.6 2.9-0.9 1.4-0.3 2.7-0.3 3.6 0 5.4 1.9 1.8 1.8 1.8 5.6zm16.5 1q0-3-1.2-4.6-1.3-1.6-3.5-1.6-2.2 0-3.4 1.6-1.2 1.6-1.2 4.6 0 3 1.2 4.6 1.2 1.6 3.4 1.6 2.2 0 3.5-1.6 1.2-1.6 1.2-4.6zm2.7-8.1v14.5q0 4.3-1.9 6.3-1.9 2.1-5.7 2.1-1.5 0-2.7-0.2-1.3-0.2-2.5-0.7v-2.6q1.2 0.6 2.4 0.9 1.1 0.4 2.3 0.4 2.7 0 4-1.4 1.4-1.4 1.4-4.3v-1.3q-0.9 1.4-2.2 2.2-1.3 0.7-3.1 0.7-3.1 0-5-2.3-1.8-2.4-1.8-6.2 0-3.8 1.8-6.2 1.9-2.3 5-2.3 1.8 0 3.1 0.7 1.3 0.8 2.2 2.2v-2.5zm19.8 7.6v1.4h-12.5q0.1 2.8 1.6 4.2 1.6 1.5 4.3 1.5 1.5 0 3-0.4 1.5-0.4 2.9-1.1v2.5q-1.4 0.7-3 1-1.5 0.3-3.1 0.3-4 0-6.3-2.3-2.3-2.3-2.3-6.2 0-4.1 2.2-6.5 2.2-2.4 5.9-2.4 3.4 0 5.3 2.2 2 2.1 2 5.8zm-12.5-0.8h9.8q-0.1-2.2-1.3-3.6-1.2-1.3-3.2-1.3-2.3 0-3.7 1.3-1.3 1.3-1.6 3.6zm27.5-6.3v2.6q-1.1-0.6-2.4-0.9-1.2-0.3-2.5-0.3-2.1 0-3.1 0.6-1 0.6-1 1.9 0 0.9 0.7 1.5 0.8 0.5 2.9 1l1 0.2q2.9 0.6 4.1 1.8 1.2 1.1 1.2 3.1 0 2.3-1.8 3.7-1.8 1.3-5 1.3-1.4 0-2.8-0.2-1.5-0.3-3.1-0.8v-2.8q1.6 0.8 3 1.2 1.5 0.3 2.9 0.3 2 0 3-0.6 1-0.7 1-1.9 0-1.1-0.7-1.7-0.8-0.6-3.3-1.1l-1-0.2q-2.5-0.6-3.6-1.7-1.1-1.1-1.1-3 0-2.3 1.6-3.6 1.7-1.3 4.7-1.3 1.5 0 2.9 0.2 1.3 0.2 2.4 0.7zm5.6 16.1v-3.8h3.2v3.8z"/><path class="f" d="m1120.2 128.3l-4.8 4.2h9.8v4.2h-16.1v-4.2l8.1-7.1q1-1 1.6-2 0.5-0.9 0.5-1.9 0-1.6-1.1-2.5-1-1-2.7-1-1.4 0-3 0.6-1.5 0.6-3.3 1.7v-4.8q1.9-0.7 3.8-1 1.8-0.3 3.6-0.3 4 0 6.2 1.7 2.2 1.7 2.2 4.9 0 1.8-0.9 3.4-1 1.5-3.9 4.1zm21.6-2.7q0-4.2-0.8-5.8-0.8-1.8-2.6-1.8-1.9 0-2.7 1.8-0.7 1.6-0.7 5.8 0 4.2 0.7 5.9 0.8 1.7 2.7 1.7 1.8 0 2.6-1.7 0.8-1.7 0.8-5.9zm5.7 0q0 5.5-2.4 8.5-2.4 3-6.7 3-4.4 0-6.8-3-2.3-3-2.3-8.5 0-5.5 2.3-8.5 2.4-2.9 6.8-2.9 4.3 0 6.7 2.9 2.4 3 2.4 8.5zm1.9 11.1l6.2-8.5-5.9-8.1h5.6l3.4 4.9 3.4-4.9h5.6l-6 8.1 6.3 8.5h-5.6l-3.7-5.3-3.7 5.3zm19.1 2.8l7.8-24.9h3.3l-7.8 24.9zm14.3-12.5v-12.4h14.1v4.1h-9.6v3.5q0.7-0.2 1.3-0.3 0.7-0.1 1.4-0.1 4 0 6.3 2 2.2 2 2.2 5.7 0 3.5-2.4 5.6-2.5 2-6.8 2-1.9 0-3.8-0.4-1.8-0.3-3.6-1.1v-4.5q1.8 1.1 3.4 1.6 1.6 0.5 3.1 0.5 2 0 3.2-1 1.2-1 1.2-2.7 0-1.8-1.2-2.8-1.2-1-3.2-1-1.3 0-2.7 0.3-1.3 0.3-2.9 1zm18.3 9.7l6.3-8.5-6-8.1h5.6l3.4 4.9 3.4-4.9h5.7l-6 8.1 6.3 8.5h-5.7l-3.7-5.3-3.7 5.3z"/><path class="b" d="m611.1 76.8v-6.1h26.6v4.9l-17 20.6h17.5v6.1h-27.6v-4.9l17-20.6zm56.4 13.6v2.2h-17.7q0.2 2.6 1.9 4 1.6 1.3 4.6 1.3 2.4 0 4.9-0.7 2.5-0.7 5.2-2.2v5.9q-2.7 1-5.4 1.5-2.7 0.6-5.4 0.6-6.4 0-10-3.3-3.6-3.3-3.6-9.2 0-5.8 3.5-9.2 3.5-3.3 9.7-3.3 5.6 0 8.9 3.4 3.4 3.3 3.4 9zm-17.7-2.5h9.9q0-2.2-1.3-3.5-1.2-1.3-3.3-1.3-2.2 0-3.5 1.2-1.4 1.2-1.8 3.6zm41.1-9.7v6.8q-1-0.4-2-0.6-0.9-0.3-1.9-0.3-3 0-4.6 1.9-1.5 1.9-1.5 5.4v10.9h-7.6v-23.7h7.6v3.9q1.4-2.4 3.3-3.4 1.9-1.1 4.6-1.1 0.4 0 0.8 0 0.5 0.1 1.3 0.2zm15.1 5.2q-2.5 0-3.8 1.9-1.4 1.8-1.4 5.2 0 3.4 1.4 5.2 1.3 1.8 3.8 1.8 2.5 0 3.8-1.8 1.3-1.8 1.3-5.2 0-3.4-1.3-5.2-1.3-1.9-3.8-1.9zm0-5.4q6.2 0 9.6 3.3 3.5 3.3 3.5 9.2 0 5.8-3.5 9.1-3.4 3.4-9.6 3.4-6.1 0-9.6-3.4-3.5-3.3-3.5-9.1 0-5.9 3.5-9.2 3.5-3.3 9.6-3.3zm31.2 19.4q2.5 0 3.7-1.7 1.3-1.8 1.3-5.2 0-3.4-1.3-5.2-1.2-1.8-3.7-1.8-2.4 0-3.7 1.8-1.3 1.8-1.3 5.2 0 3.4 1.3 5.2 1.3 1.7 3.7 1.7zm-5-28.1v12.8q1.5-2.1 3.4-3.1 2-1 4.4-1 4.4 0 7.3 3.5 2.8 3.5 2.8 9 0 5.5-2.8 9-2.9 3.5-7.3 3.5-2.4 0-4.4-1-1.9-1-3.4-3.1v3.4h-7.6v-33zm41.1 8.9v6.8q-1-0.4-2-0.6-0.9-0.3-1.9-0.3-3 0-4.5 1.9-1.6 1.9-1.6 5.4v10.9h-7.6v-23.7h7.6v3.9q1.4-2.4 3.3-3.4 1.9-1.1 4.6-1.1 0.4 0 0.8 0 0.5 0.1 1.3 0.2zm27.5 12.2v2.2h-17.7q0.3 2.6 1.9 4 1.7 1.3 4.6 1.3 2.4 0 4.9-0.7 2.6-0.7 5.2-2.2v5.9q-2.7 1-5.4 1.5-2.7 0.6-5.4 0.6-6.4 0-10-3.3-3.6-3.3-3.6-9.2 0-5.8 3.5-9.2 3.6-3.3 9.7-3.3 5.6 0 9 3.4 3.3 3.3 3.3 9zm-17.6-2.5h9.8q0-2.2-1.2-3.5-1.3-1.3-3.3-1.3-2.2 0-3.6 1.2-1.4 1.2-1.7 3.6zm27.5 14.4l-6.2-23.7h7.4l3.9 16.4 4.1-16.4h6.3l4 16.2 4-16.2h7.4l-6.3 23.7h-8.3l-4-16.3-4 16.3z"/></svg>